<?xml version="1.0" encoding="UTF-8"?>
<svg width="174px" height="46px" viewBox="0 0 174 46" version="1.1" xmlns="http://www.w3.org/2000/svg" xmlns:xlink="http://www.w3.org/1999/xlink">
    <title>entree-logo</title>
    <defs>
        <filter color-interpolation-filters="auto" id="filter-1">
            <feColorMatrix in="SourceGraphic" type="matrix" values="0 0 0 0 0.400000 0 0 0 0 0.415686 0 0 0 0 0.964706 0 0 0 1.000000 0"></feColorMatrix>
        </filter>
    </defs>
    <g id="Welcome" stroke="none" stroke-width="1" fill="none" fill-rule="evenodd">
        <g id="entree-logo" transform="translate(-92.000000, -85.000000)" filter="url(#filter-1)">
            <g transform="translate(92.000000, 85.000000)">
                <text id="Entre" fill="#5F3CC8" fill-rule="nonzero" font-family="CenturyGothic, Century Gothic" font-size="38.0982519" font-weight="normal">
                    <tspan x="61.0543311" y="38">Entre</tspan>
                </text>
                <text id="E" fill="#5F3CC8" fill-rule="nonzero" font-family="CenturyGothic-Bold, Century Gothic" font-size="38.0982519" font-weight="bold">
                    <tspan x="153.972411" y="38">E</tspan>
                </text>
                <g id="rocket" transform="translate(0.000000, 2.381141)" fill="#3E2AD1" fill-rule="nonzero">
                    <path d="M23.4523096,40.476922 C22.6511016,40.5100896 21.8722309,40.2080985 21.3024416,39.6433552 L19.3656236,37.5691307 C18.8446678,36.7954598 18.9482296,35.7601144 19.612085,35.1051651 C20.2759404,34.4502157 21.3117556,34.3614696 22.0771689,34.8939627 L23.4523096,36.2703173 L24.1301959,35.5918325 C24.3103309,35.4049549 24.4080139,35.1535483 24.4013504,34.8939627 L25.544073,26.907229 C25.6654514,26.0766904 26.0528515,25.308009 26.6480593,24.7166928 L31.4707362,19.8897591 C34.7515734,16.6283015 36.5927224,12.188891 36.5839357,7.56072375 L36.5839357,3.87752136 L32.9233498,3.87752136 C28.299264,3.86872688 23.8637686,5.71150101 20.6051871,8.99523418 L15.6856694,13.8221678 C15.1076218,14.3998022 14.3619297,14.7797622 13.5551696,14.9077433 L5.55611122,16.0514745 C5.35097732,16.0815071 5.16088735,16.176636 5.01380217,16.3228685 L4.33591586,17.0013531 L5.71105667,18.3777077 C6.20234716,18.8798203 6.3886806,19.6061233 6.199867,20.2830252 C6.01105339,20.9599271 5.47577802,21.4845905 4.79567393,21.6593798 C4.11556985,21.834169 3.39396104,21.6325295 2.90267055,21.1304168 L0.849643465,19.0755775 C-0.283214488,17.9403079 -0.283214488,16.1011689 0.849643465,14.9658991 L2.22478424,13.5701593 C2.9661535,12.8364367 3.92356165,12.3607083 4.95569763,12.2131899 L12.9547561,11.0694587 L17.7774328,6.24252501 C21.784723,2.21203923 27.2424051,-0.037225231 32.9233498,0.000466178589 L38.5982264,0.000466178589 C39.1119026,0.000466168105 39.6045398,0.204703304 39.9677636,0.568247745 C40.3309874,0.931792186 40.5352325,1.42486426 40.5352325,1.93899375 L40.5352325,7.61887957 C40.5519305,13.2779954 38.306242,18.7087027 34.2984905,22.7006242 L29.3789727,27.5275578 L28.2362501,35.5336767 C28.0835204,36.5691028 27.601279,37.5276386 26.8611094,38.2670006 L25.4859685,39.6433552 C24.9444482,40.1787801 24.2135038,40.4783836 23.4523096,40.476922 Z M13.8650604,34.8939627 L16.5959739,32.1606387 C17.2540598,31.391508 17.2098142,30.2449971 16.4944135,29.5289649 C15.7790127,28.8129327 14.6335129,28.768648 13.8650604,29.4273149 L11.1147789,32.1024829 C10.3446129,32.8626226 10.3359414,34.1037315 11.0954107,34.8745773 C11.85488,35.6454232 13.0948945,35.6541022 13.8650604,34.8939627 L13.8650604,34.8939627 Z M5.63358394,32.1024829 L11.1147789,26.6164499 C11.7728648,25.8473192 11.7286192,24.7008081 11.0132185,23.984776 C10.2978179,23.2687439 9.15231797,23.2244592 8.38386553,23.8831259 L2.90267055,29.3497737 C2.34994893,29.8235303 2.1091913,30.5673985 2.27938301,31.2755437 C2.44957472,31.983689 3.00199155,32.5365933 3.70951225,32.7069353 C4.41703294,32.8772773 5.1602452,32.6363072 5.63358394,32.0830976 L5.63358394,32.1024829 Z M30.2892772,18.3970929 C32.5549931,16.1265533 32.5549931,12.4482756 30.2892772,10.177736 C29.5208247,9.5190692 28.3753249,9.5633539 27.6599242,10.279386 C26.9445236,10.9954182 26.9002778,12.1419292 27.5583638,12.9110599 C27.925028,13.2750506 28.1312713,13.7705303 28.1312713,14.2874145 C28.1312713,14.8042987 27.925028,15.2997783 27.5583638,15.6637691 C26.8029323,16.4153819 25.582882,16.4153819 24.8274504,15.6637691 C24.4607862,15.2997783 24.2545429,14.8042987 24.2545429,14.2874145 C24.2545429,13.7705303 24.4607862,13.2750506 24.8274504,12.9110599 C25.5869196,12.1509202 25.5869196,10.9184904 24.8274504,10.1583507 C24.0679811,9.39821108 22.8366381,9.39821108 22.0771689,10.1583507 C20.522654,11.6081412 19.8827602,13.7915821 20.4085183,15.8521079 C20.9342765,17.9126339 22.5418325,19.5216089 24.6005412,20.047831 C26.65925,20.5740531 28.8407652,19.9335946 30.2892772,18.3777077 L30.2892772,18.3970929 Z" id="Shape"></path>
                </g>
            </g>
        </g>
    </g>
</svg>