<?xml version="1.0" encoding="UTF-8"?>
<svg width="602px" height="396px" viewBox="0 0 602 396" version="1.1" xmlns="http://www.w3.org/2000/svg" xmlns:xlink="http://www.w3.org/1999/xlink">
    <title>test</title>
    <defs>
        <linearGradient x1="3.51042396%" y1="121.607034%" x2="106.455858%" y2="-54.2350953%" id="linearGradient-1">
            <stop stop-color="#FFFFFF" offset="0%"></stop>
            <stop stop-color="#EEEEEE" offset="100%"></stop>
        </linearGradient>
        <linearGradient x1="44.8355968%" y1="152.152416%" x2="56.931908%" y2="-102.790896%" id="linearGradient-2">
            <stop stop-color="#FFFFFF" offset="0%"></stop>
            <stop stop-color="#EEEEEE" offset="100%"></stop>
        </linearGradient>
        <linearGradient x1="92.8478168%" y1="32.9199628%" x2="-12.9428112%" y2="74.5739637%" id="linearGradient-3">
            <stop stop-color="#FFFFFF" offset="0%"></stop>
            <stop stop-color="#EEEEEE" offset="100%"></stop>
        </linearGradient>
        <linearGradient x1="76.8464146%" y1="56.9651878%" x2="9.0829285%" y2="33.8107065%" id="linearGradient-4">
            <stop stop-color="#FFFFFF" offset="0%"></stop>
            <stop stop-color="#EEEEEE" offset="100%"></stop>
        </linearGradient>
        <linearGradient x1="100.914958%" y1="19.9543507%" x2="-30.9875146%" y2="101.124613%" id="linearGradient-5">
            <stop stop-color="#FFFFFF" offset="0%"></stop>
            <stop stop-color="#EEEEEE" offset="100%"></stop>
        </linearGradient>
        <linearGradient x1="-27.7308626%" y1="171.289867%" x2="163.989725%" y2="-133.070959%" id="linearGradient-6">
            <stop stop-color="#FFFFFF" offset="0%"></stop>
            <stop stop-color="#EEEEEE" offset="100%"></stop>
        </linearGradient>
        <linearGradient x1="74.5045858%" y1="163.445996%" x2="14.8944123%" y2="-120.467487%" id="linearGradient-7">
            <stop stop-color="#FFFFFF" offset="0%"></stop>
            <stop stop-color="#EEEEEE" offset="100%"></stop>
        </linearGradient>
        <linearGradient x1="169.937721%" y1="-10.5885361%" x2="-130.819974%" y2="138.560958%" id="linearGradient-8">
            <stop stop-color="#FFFFFF" offset="0%"></stop>
            <stop stop-color="#EEEEEE" offset="100%"></stop>
        </linearGradient>
        <linearGradient x1="85.1328036%" y1="-44.8516106%" x2="-3.75755769%" y2="190.856858%" id="linearGradient-9">
            <stop stop-color="#FFFFFF" offset="0%"></stop>
            <stop stop-color="#EEEEEE" offset="100%"></stop>
        </linearGradient>
    </defs>
    <g id="Welcome" stroke="none" stroke-width="1" fill="none" fill-rule="evenodd">
        <g id="Desktop-HD" transform="translate(-660.000000, -313.000000)">
            <g id="test" transform="translate(660.000000, 314.965000)">
                <rect id="Rectangle" stroke="#E1E4E5" stroke-width="2.959" fill="#FFFFFF" fill-rule="nonzero" x="40.075" y="0" width="468.51" height="314.28" rx="34.029"></rect>
                <circle id="Oval" fill="#E1E4E5" fill-rule="nonzero" cx="76.84" cy="25.48" r="6.896"></circle>
                <circle id="Oval" fill="#E1E4E5" fill-rule="nonzero" cx="100.664" cy="25.48" r="6.896"></circle>
                <circle id="Oval" fill="#E1E4E5" fill-rule="nonzero" cx="124.488" cy="25.48" r="6.896"></circle>
                <path d="M600.877,145.146 C595.371,85.597 496.303,86.671 496.303,86.671 C496.303,86.671 413.827,174.857 394.458,173.931 C375.089,173.004 450.254,84.757 450.254,84.757 C414.142,74.818 312.706,103.547 312.706,103.547 C312.706,103.547 298.429,220.686 279.883,215.02 C261.336,209.354 297.816,111.939 297.816,111.939 C260.42,116.42 220.029,152.12 220.029,152.12 C166.808,212.435 247.008,277.666 247.008,277.666 C247.008,277.666 241.186,318.155 208.262,360.028 C208.262,360.028 201.167,367.583 192.935,381.094 L202.622,382.781 C203.832708,380.37236 205.146934,378.017163 206.561,375.722 C206.569,375.703 206.573,375.693 206.59,375.678 C206.616,375.644 206.628,375.615 206.653,375.581 C207.573,374.201 208.907,372.231 210.546,369.849 L210.55,369.839 L210.554,369.83 C214.52,364.544 217.272,360.615 219.068,357.749 L219.08,357.72 C231.117,341.066 248.018,319.588 257.406,316.103 C257.406,316.103 256.594,314.409 256.101,311.3 C256.52,312.831 256.944,314.431 257.406,316.103 C267.807,354.532 349.716,374.884 397.572,373.443 C445.428,372.002 427.557,355.466 406.353,329.986 C385.148,304.506 332.049,301.012 318.095,290.038 C304.14,279.065 328.088,274.69 358.488,282.415 C388.875,290.147 398.929,323.629 447.862,337.027 C496.795,350.425 550.998,263.416 550.998,263.416 C514.782,268.107 456.467,238.421 456.158,226.166 C455.852,213.902 546.878,230.96 561.708,229.879 C576.56,228.797 606.383,204.695 600.877,145.146 Z" id="Path" fill="url(#linearGradient-1)" fill-rule="nonzero"></path>
                <path d="M92.833,210.724 C106.13,189.199 143.463,208.256 143.463,208.256 C143.463,208.256 158.11,257.195 165.623,260.49 C173.136,263.785 161.27,216.2 161.27,216.2 C176.823,219.232 209.847,249.213 209.847,249.213 C209.847,249.213 193.204,296.283 201.298,297.628 C209.391,298.972 213.909,255.196 213.909,255.196 C227.234,263.934 235.817,285.064 235.817,285.064 C244.626,317.936 201.96,327.552 201.96,327.552 C201.96,327.552 196.543,343.989 201.135,366.052 C201.135,366.052 202.401,370.25 202.976,376.919 L198.988,375.734 C198.982399,374.59353 198.928016,373.453822 198.825,372.318 C198.825,372.309 198.826,372.305 198.822,372.296 C198.819,372.278 198.82,372.265 198.816,372.247 C198.727,371.552 198.593,370.554 198.42,369.343 L198.421,369.338 L198.421,369.334 C197.913,366.584 197.61,364.578 197.47,363.154 L197.471,363.141 C196.045,354.565 193.685,343.246 190.784,340.158 C190.784,340.158 191.411,339.669 192.183,338.583 C191.736,339.085 191.274,339.611 190.784,340.158 C179.609,352.76 144.744,345.051 126.883,335.495 C109.022,325.94 118.907,323.039 131.737,317.377 C144.568,311.715 165.344,320.388 172.697,318.857 C180.05,317.326 171.801,311.161 158.828,308.364 C145.859,305.573 135.747,316.367 114.685,312.231 C93.623,308.095 89.466,264.925 89.466,264.925 C102.305,273.52 129.988,273.25 132.412,268.666 C134.837,264.077 97.137,253.403 91.722,250.202 C86.299,246.996 79.536,232.25 92.833,210.724 Z" id="Path" fill="url(#linearGradient-2)" fill-rule="nonzero"></path>
                <path d="M293.727,173.074 C297.965,179.722 309.036,187.469 316.89,187.363 C343.641,186.873 352.448,168.65 355.335,162.015 C354.792,161.883 353.879,161.777 353.23,161.697 C348.303,160.982 343.271,156.109 341.801,150.613 C339.907,143.461 337.576,129.476 337.854,120.59 L304.017,139.316 C304.07,141.885 304.242,144.693 304.48,147.527 C304.653,149.249 304.825,150.944 305.023,152.586 C305.209,154.162 305.421,155.658 305.619,157.036 C306.242,161.671 304.176,166.266 300.269,168.822 L293.727,173.074 L293.727,173.074 Z" id="Path" fill="#FFD4CA" fill-rule="nonzero"></path>
                <path d="M290.814,100.234 C292.642,105.029 291.874,110.472 290.019,115.253 C288.708,118.63 285.795,115.65 282.166,115.716 C276.551,115.809 272.167,109.968 268.777,94.487 C266.618,83.124 266.075,77.363 266.512,76.264 C268.062,72.33 273.174,70.225 277.385,69.854" id="Path" fill="#31446C" fill-rule="nonzero"></path>
                <path d="M282.271,66.185 C273.424,76.846 270.206,106.843 277.676,127.741 C282.986,142.6 289.158,152.189 296.362,151.884 C307.301,151.421 328.504,142.428 335.404,134.919 C347.84,121.398 344.224,94.884 341.655,78.197 C339.324,63.034 332.225,43.34 313.168,47.088 C300.64,49.538 290.204,56.61 282.271,66.185 L282.271,66.185 Z" id="Path" fill="#FFD4CA" fill-rule="nonzero"></path>
                <path d="M332.323,77.961 C330.361,80.482 326.902,81.038 324.052,81.536 C320.221,82.206 318.326,83.602 316.337,87.348 C315.078,89.74 313.819,92.361 311.566,93.657 C309.734,94.715 309.804,92.013 309.509,89.919 C309.481749,89.7363958 309.444357,89.5554494 309.397,89.377 C308.952,87.706 307.172,87.993 306.648,89.641 C306.171,91.122 305.15,92.375 303.851,93.073 C303.639,93.187 303.414,93.287 303.188,93.244 C302.883,93.202 302.645,92.917 302.446,92.66 C302.029,92.122 301.614,91.439 301.186,90.715 C299.779,88.34 297.124,89.194 295.553,91.464 C294.573,92.874 293.406,94.327 291.802,94.654 C291.285,94.768 290.636,94.683 290.397,94.184 C290.092,93.572 290.569,92.959 290.49,92.333 C290.424,91.749 290.172,91.492 289.893,90.994 C288.799,89.056 286.304,88.987 284.767,90.595 C283.696488,91.7129448 282.580898,92.7868344 281.423,93.814 C280.933,94.241 280.217,94.669 279.727,94.241 C279.462,94.013 279.395,93.629 279.342,93.258 C279.064,91.45 278.799,89.641 278.521,87.832 C278.361,86.821 277.818,85.496 276.89,85.752 C276.44,85.881 276.174,86.351 275.923,86.778 C275.618,87.319 270.17,93.486 270.064,93.016 C269.215,89.513 267.479,86.322 266.631,82.818 C261.143,60.271 285.493,42.14 304.09,42.04 C308.225,42.011 312.003,42.078 316.019,43.033 C320.301,44.058 324.821,45.686 328.704,47.979 C334.152,51.184 338.275,57.01 337.214,63.96" id="Path" fill="#31446C" fill-rule="nonzero"></path>
                <path d="M323.565,70.225 C320.863,73.284 320.148,77.588 319.897,81.654 C319.526,87.786 320.029,94.156 322.863,99.599 C323.671,101.148 324.267,108.816 325.512,108.392 C325.909,108.26 325.843,102.314 326.889,99.109 C328.505,94.142 335.948,92.249 339.298,95.387 C344.649,100.38 341.51,106.446 339.735,110.22 C338.676,112.498 336.994,115.054 336.702,117.464 C336.345,120.55 336.239,131.794 338.252,134.416 C339.934,136.614 341.722,125.993 343.245,123.901 C354.515,108.313 365.322,68.622 346.079,60.014 C343.152,58.703 334.12,58.027 331.379,59.696 M252.314,385.737 C251.201,385.923 250.076,386.082 248.91,386.122 C242.712,386.32 236.726,384.956 230.674,383.923 C225.35,383.009 223.907,382.506 224.013,376.083 C224.94,325.215 232.422,274.479 245.878,225.412 C247.93,217.916 250.168,210.367 254.102,203.666 C260.816,192.237 276.232,182.371 288.058,176.835 C289.727,176.053 296.64,180.45 298.322,179.695 C299.792,179.033 301.09,178 302.573,177.351 C306.917,175.457 309.83,179.417 313.459,181.073 C315.34,181.92 317.432,182.463 319.498,182.371 C321.18,182.304 322.703,181.285 324.239,182.079 C331.152,185.655 348.316,159.115 348.316,159.115 L355.772,166.862 L377.531,189.654 L431.909,264.573 C431.909,264.573 441.775,325.97 448.556,366.217 C449.734,373.156 454.396,388.161 455.323,393.419 C455.125,392.28 408.905,391.975 406.415,391.975 L312.214,391.975 C306.93,391.975 292.72,394.213 289.012,390.333 C284.443,385.565 279.158,363.687 278.88,357.555 C277.966,336.935 279.384,316.474 279.662,295.735 C279.542,304.171 277.119,311.799 276.086,320.063 C274.748,330.698 272.841,341.319 271.12,351.9 C269.742,360.403 268.418,368.931 267.358,377.487 C266.882,381.341 267.491,383.632 264.233,385.142 C261.492,386.4 255.519,385.194 252.314,385.737 L252.314,385.737 Z" id="Shape" fill="#31446C" fill-rule="nonzero"></path>
                <path d="M275.264,368.123 C277.78,367.09 293.315,363.237 300.32,361.78 C303.989,361.025 320.623,356.708 324.476,356.708 C328.33,356.708 333.575,362.217 333.575,362.217 L332.184,381.168 C328.476,380.798 323.51,382.718 320.848,383.089 C318.186,383.459 309.14,383.512 303.578,380.718 C303.26,380.559 302.969,380.387 302.678,380.215 C300.44,382.201 297.632,384.135 294.52,384.294 C294.52,384.294 292.083,384.042 292.321,383.062 C292.427,382.585 294.043,380.122 295.659,377.712 C293.275,380.135 289.381,384.069 284.892,384.294 C284.892,384.294 282.455,384.042 282.693,383.062 C282.826,382.479 285.157,378.996 287.037,376.228 C287.011,376.255 286.971,376.268 286.958,376.295 C284.984,378.03 280.296,384.016 274.747,384.294 C274.747,384.294 272.31,384.042 272.549,383.062 C272.628,382.705 273.555,381.235 274.681,379.526 C273.03841,380.788056 271.277535,381.888184 269.423,382.811 C263.424,385.777 260.00699,383.526 260.00699,382.811 C259.994,382.082 272.747,369.156 275.264,368.123 L275.264,368.123 Z" id="Path" fill="#FFD4CA" fill-rule="nonzero"></path>
                <path d="M329.283,346.113 C329.283,346.113 319.615,351.596 320.476,363.25 C321.337,374.904 324.833,388.413 339.427,386.996 C354.022,385.592 329.283,346.113 329.283,346.113 L329.283,346.113 Z" id="Path" fill="#31446C" fill-rule="nonzero"></path>
                <path d="M337.072,385.843 C372.062,397.988 418.877,386.386 448.556,366.216 C467.15,353.609 479.016,337.597 477.016,321.957 C471.838,281.326 439.908,188.198 412.282,174.61 C393.503,165.366 370.724,161.538 358.024,160.002 C352.064,159.274 348.343,159.102 348.343,159.102 L352.951,172.107 L376.021,237.159 C376.882,275.764 404.508,298.688 399.012,307.68 C393.516,316.646 350.117,326.327 327.325,341.676 C321.021,345.941 313.022,376.785 337.072,385.843 L337.072,385.843 Z" id="Path" fill="#31446C" fill-rule="nonzero"></path>
                <path d="M376.022,237.159 C375.995,244.483 377.015,251.82 378.922,258.918 C380.842,266.017 383.65,272.863 386.908,279.459 C388.537,282.756 390.272,285.988 392.059,289.179 C393.821,292.384 395.635,295.563 397.118,298.821 C397.847,300.45 398.483,302.132 398.734,303.787 C398.8,304.595 398.867,305.429 398.641,306.131 C398.589,306.515 398.363,306.806 398.231,307.151 C397.979,307.455 397.807,307.787 397.489,308.078 C395.119,310.448 391.728,312.051 388.51,313.6 C375.293,319.626 361.255,324.089 347.879,330.102 C341.191,333.108 334.57,336.353 328.411,340.405 L327.272,341.173 C326.888,341.438 326.531,341.783 326.16,342.087 C325.477941,342.748209 324.885858,343.496297 324.399,344.312 C323.418,345.915 322.756,347.663 322.24,349.437 C321.26,353 320.849,356.668 320.823,360.337 C321.061,356.695 321.67,353.053 322.743,349.596 C323.882,346.166 325.643,342.829 328.941,341.226 C335.126,337.386 341.761,334.326 348.488,331.506 C355.229,328.724 362.05,326.089 368.897,323.533 C375.744,320.937 382.63,318.461 389.358,315.388 C392.669,313.746 396.072,312.197 398.893,309.349 C399.251,309.005 399.542,308.528 399.847,308.118 C400.072,307.614 400.376,307.138 400.456,306.608 C400.774,305.548 400.668,304.502 400.575,303.509 C400.257,301.549 399.542,299.774 398.774,298.079 C397.198,294.689 395.357,291.524 393.569,288.332 C391.781,285.14 389.98,281.975 388.272,278.757 C381.451,265.937 376.71,251.833 376.022,237.159 L376.022,237.159 Z" id="Path" fill="#FFFFFF" fill-rule="nonzero"></path>
                <path d="M285.344,178.093 C288.681,181.404 303.54,191.985 317.711,191.985 C320.221285,191.981669 322.725906,191.746673 325.193,191.283 C337.086,189.112 347.098,181.179 352.952,172.094 C354.019905,170.421857 354.962805,168.673096 355.773,166.862 C356.832,164.585 357.587,162.254 358.024,160.002 C352.064,159.274 346.37,157.777 345.443,156.718 C344.436,163.658 335.868,176.186 322.889,178.543 C321.359728,178.827249 319.809271,178.982462 318.254,179.007 L318.227,179.007 C312.135,179.113 307.46,177.166 304.269,175.206 C304.242,175.206 298.057,170.332 298.031,170.306 L285.344,178.093 L285.344,178.093 Z" id="Path" fill="#31446C" fill-rule="nonzero"></path>
                <path d="M276.019,329.384 C276.055,328.736 275.972,328.095 275.995,327.446 C276.022,326.745 276.1,326.059 276.153,325.359 L276.537,321.348 C276.784,318.617 277.031,315.885 277.237,313.151 C277.648468,307.731287 277.927551,302.302336 278.074,296.869 C278.354,286.008 278.197,275.122 277.467,264.284 C277.261779,261.251552 277.016424,258.221953 276.731,255.196 C276.577381,253.643349 276.41738,252.091336 276.251,250.54 C276.084,249.018 275.838,247.506 275.818,245.966 C275.806,245.01 277.242,244.945 277.457,245.833 C278.091,248.468 278.184,251.299 278.457,253.994 C278.716,256.701 278.948,259.407 279.154,262.124 C279.549,267.598 279.811,273.078 279.94,278.563 C280.174,289.48 279.785,300.401 278.854,311.292 C278.593941,314.347867 278.280894,317.398992 277.915,320.444 C277.727697,321.995855 277.521014,323.545309 277.295,325.092 C277.19,325.776 277.099,326.46 276.968,327.129 C276.805,327.916 276.512,328.642 276.348,329.429 C276.258,329.61 275.997,329.542 276.019,329.384 L276.019,329.384 Z" id="Path" fill="#FFFFFF" fill-rule="nonzero"></path>
                <path d="M279.067,118.02 C278.974,118.02 278.723,117.875 278.935,117.875 C279.04,117.875 279.278,118.02 279.067,118.02 Z" id="Path" fill="#CC6144" fill-rule="nonzero"></path>
                <path d="M71.171,226.826 C76.212,235.73 73.819,249.224 73.819,249.224 C73.819,249.224 59.395,245.255 54.354,236.35 C49.313,227.445 48.991,218.098 53.631,215.466 C58.278,212.831 66.13,217.921 71.171,226.826 L71.171,226.826 Z" id="Path" fill="url(#linearGradient-3)" fill-rule="nonzero"></path>
                <path d="M86.227,154.268 C87.453,169.765 75.5,186.81 75.5,186.81 C75.5,186.81 58.184,172.088 56.957,156.591 C55.731,141.094 61.285,128.016 69.365,127.369 C77.455,126.723 85,138.771 86.227,154.268 L86.227,154.268 Z" id="Path" fill="url(#linearGradient-4)" fill-rule="nonzero"></path>
                <path d="M168.571,182.767 C176.693,189.199 179.591,202.767 179.591,202.767 C179.591,202.767 164.549,204.541 156.427,198.11 C148.306,191.678 144.441,183.034 147.79,178.796 C151.146,174.554 160.45,176.336 168.571,182.767 Z" id="Path" fill="url(#linearGradient-5)" fill-rule="nonzero"></path>
                <path d="M75.6,302.598 L75.6,317.824 L89.345,334.206 L31.608,334.206 C14.156,334.206 0,320.05 0,302.598 C0,285.146 14.156,270.99 31.608,270.99 L43.992,270.99 C61.455,270.99 75.6,285.146 75.6,302.598 L75.6,302.598 Z" id="Path" fill="#E1E4E5" fill-rule="nonzero"></path>
                <path d="M51.243,302.544 C51.2441034,305.646993 53.7590076,308.162344 56.862,308.164 C59.9649924,308.162344 62.4798966,305.646993 62.481,302.544 C62.4793448,299.441398 59.9646022,296.926655 56.862,296.925 C53.7591693,296.926104 51.2441038,299.441169 51.243,302.544 L51.243,302.544 Z M32.147,302.544 C32.1486556,305.646992 34.6640073,308.161897 37.767,308.163 C40.8696022,308.161345 43.3843448,305.646602 43.386,302.544 C43.3843448,299.441398 40.8696022,296.926655 37.767,296.925 C34.6640073,296.926103 32.1486556,299.441008 32.147,302.544 L32.147,302.544 Z M13.053,302.544 C13.0546552,305.646602 15.5693978,308.161345 18.672,308.163 C21.7749927,308.161897 24.2903444,305.646992 24.292,302.544 C24.2903444,299.441008 21.7749927,296.926103 18.672,296.925 C15.5693978,296.926655 13.0546552,299.441398 13.053,302.544 L13.053,302.544 Z" id="Shape" fill="#FFFFFF" fill-rule="nonzero"></path>
                <path d="M211.861,67.988 L229.903,111.976 C230.496166,113.419705 230.491523,115.039915 229.890093,116.480197 C229.288663,117.920479 228.139712,119.062851 226.696,119.656 L150.301,150.987 C147.995869,151.930898 145.346107,151.319939 143.687,149.462 C143.239403,148.963968 142.880838,148.392633 142.627,147.773 L124.593,103.803 C123.999287,102.361107 124.003156,100.742331 124.603756,99.3032929 C125.204356,97.8642544 126.35241,96.723018 127.795,96.131 L204.189,64.793 C207.189,63.563 210.612,64.99 211.861,67.988 L211.861,67.988 Z" id="Path" fill="#E1E4E5" fill-rule="nonzero"></path>
                <path d="M180.392,109.904 L228.779,115.232 C228.449181,116.626005 227.467339,117.775396 226.142,118.319 L149.756,149.655 C148.438748,150.194865 146.942448,150.069894 145.733,149.319 L180.392,109.904 L180.392,109.904 Z" id="Path" stroke="#FFFFFF" stroke-width="2.882" fill="#E1E4E5" fill-rule="nonzero"></path>
                <path d="M125.926,103.256 L125.926,103.255 C125.477856,102.16686 125.480557,100.94522 125.93351,99.8590723 C126.386462,98.7729244 127.252524,97.9113293 128.341,97.464 L128.342,97.464 L204.736,66.126 C206.748976,65.301547 209.062914,66.0546662 210.205,67.906 L180.707,114.186 L126.549,104.772 L125.926,103.256 L125.926,103.256 Z" id="Path" stroke="#FFFFFF" stroke-width="2.882" fill="#E1E4E5" fill-rule="nonzero"></path>
                <path d="M531.71,360.564 C521.277,371.182 501.767,368.944 501.767,368.944 C501.767,368.944 499.185,349.488 509.628,338.876 C520.061,328.257 539.561,330.489 539.561,330.489 C539.561,330.489 542.143,349.945 531.71,360.564 Z" id="Path" fill="url(#linearGradient-6)" fill-rule="nonzero"></path>
                <path d="M9.445,67.041 C12.727,73.053 21.645,74.517 21.645,74.517 C21.645,74.517 25.235,66.23 21.948,60.219 C18.666,54.206 9.754,52.741 9.754,52.741 C9.754,52.741 6.163,61.028 9.445,67.041 Z" id="Path" fill="url(#linearGradient-7)" fill-rule="nonzero"></path>
                <path d="M558.172,65.404 C565.112,59.408 564.504,47.325 564.504,47.325 C564.504,47.325 552.644,44.971 545.708,50.973 C538.768,56.969 539.372,69.046 539.372,69.046 C539.372,69.046 551.232,71.4 558.172,65.404 L558.172,65.404 Z" id="Path" fill="url(#linearGradient-8)" fill-rule="nonzero"></path>
                <path d="M535.96,20.253 C538.082,14.151 533.455,6.993 533.455,6.993 C533.455,6.993 525.39,9.734 523.273,15.839 C521.151,21.942 525.773,29.097 525.773,29.097 C525.773,29.097 533.838,26.356 535.96,20.253 L535.96,20.253 Z" id="Path" fill="url(#linearGradient-9)" fill-rule="nonzero"></path>
                <path d="M584.26,270.893 L584.26,220.605 C584.26,218.081678 582.214322,216.036104 579.691,216.035 L506.577,216.035 C504.053516,216.036104 502.008104,218.081516 502.007,220.605 L502.007,277.847 C502.007,283.045 507.472,286.43 512.126,284.114 L527.553,276.439 C528.511012,275.961902 529.565774,275.711127 530.636,275.706 L579.714,275.463 C582.227878,275.448158 584.258395,273.406921 584.26,270.893 L584.26,270.893 Z" id="Path" fill="#7478FF"></path>
                <path d="M542.492,245.095 C542.262457,245.324364 542.172715,245.658766 542.256579,245.972238 C542.340442,246.285711 542.585172,246.53063 542.898579,246.614738 C543.211986,246.698846 543.546457,246.609365 543.776,246.38 C544.130843,246.025433 544.131067,245.450343 543.7765,245.0955 C543.421933,244.740657 542.846843,244.740433 542.492,245.095 M558.846,245.095 C558.616278,245.324543 558.526466,245.659205 558.610396,245.972921 C558.694325,246.286638 558.939245,246.531748 559.252896,246.615921 C559.566547,246.700095 559.901278,246.610543 560.131,246.381 C560.486119,246.026157 560.486343,245.450619 560.1315,245.0955 C559.776657,244.740381 559.201119,244.740157 558.846,245.095 M526.136,245.095 C525.906457,245.324365 525.816715,245.658766 525.900579,245.972238 C525.984443,246.285711 526.229172,246.53063 526.542579,246.614738 C526.855986,246.698846 527.190457,246.609365 527.42,246.38 C527.649543,246.150635 527.739285,245.816234 527.655421,245.502762 C527.571557,245.189289 527.326828,244.94437 527.013421,244.860262 C526.700014,244.776154 526.365543,244.865635 526.136,245.095" id="Shape" stroke="#FFFFFF" stroke-width="9.041" stroke-linecap="round" stroke-linejoin="round"></path>
                <path d="M95.45,96.399 L86.371,98.905 C77.346,101.396 68.009,96.099 65.518,87.073 C63.027,78.047 68.324,68.711 77.35,66.22 C86.375,63.729 95.712,69.026 98.203,78.052 L98.955,80.775 C99.5942385,83.2627595 98.1223739,85.8039671 95.6463886,86.4873925 C93.1704033,87.1708178 90.6033957,85.7444262 89.876,83.281 L89.124,80.558 C88.5923771,78.6315978 87.3172659,76.9952833 85.5791776,76.0090289 C83.8410894,75.0227745 81.7824001,74.7673694 79.856,75.299 L79.856,75.299 C75.8444938,76.4060596 73.4899722,80.5554746 74.5970264,84.5669823 C75.7040806,88.57849 79.8534925,90.9330171 83.8650017,89.8259682 C87.8765109,88.7189194 90.2310435,84.5695107 89.124,80.558" id="Path" stroke="#E1E4E5" stroke-width="4.302" stroke-linecap="round" stroke-linejoin="round"></path>
                <path d="M496.308,163.846 C504.35,158.332 505.137,145.494 505.137,145.494 C505.137,145.494 492.885,141.604 484.846,147.125 C476.805,152.639 476.014,165.47 476.014,165.47 C476.014,165.47 488.267,169.361 496.308,163.846 L496.308,163.846 Z" id="Path" fill="#E1E4E5" fill-rule="nonzero"></path>
                <circle id="Oval" fill="#E1E4E5" fill-rule="nonzero" transform="translate(508.616000, 89.318000) scale(-1, 1) rotate(-180.000000) translate(-508.616000, -89.318000) " cx="508.616" cy="89.318" r="14.609"></circle>
                <circle id="Oval" fill="#E1E4E5" fill-rule="nonzero" transform="translate(556.680000, 175.177000) scale(-1, 1) rotate(-180.000000) translate(-556.680000, -175.177000) " cx="556.68" cy="175.177" r="8.87"></circle>
                <polygon id="Path" stroke="#E1E4E5" stroke-width="5.308" stroke-linecap="round" stroke-linejoin="round" points="571.289 328.381 558.245 315.859 571.289 303.338 584.332 315.859"></polygon>
                <polygon id="Path" fill="#7478FF" fill-rule="nonzero" points="296.713 393.157 133.696 393.157 84.652 271.21 247.429 271.21"></polygon>
                <polygon id="Path" fill="#7478FF" fill-rule="nonzero" points="131.784 388.41 347.06 388.41 347.06 393.158 133.697 393.158"></polygon>
                <path d="M169.628,331.876 C167.537,324.533 171.753,318.58 179.03,318.58 C186.307,318.58 193.89,324.533 195.981,331.876 C198.072,339.219 193.856,345.173 186.579,345.173 C179.302,345.173 171.719,339.219 169.628,331.876 Z" id="Path" fill="#FFFFFF" fill-rule="nonzero"></path>
            </g>
        </g>
    </g>
</svg>